<svg width="19" height="17" viewBox="0 0 19 17" fill="none" xmlns="http://www.w3.org/2000/svg">
<path d="M9.5 16.8333C8.45833 16.8333 7.48264 16.6354 6.57292 16.2396C5.66319 15.8438 4.87153 15.309 4.19792 14.6354C3.52431 13.9618 2.98958 13.1701 2.59375 12.2604C2.19792 11.3507 2 10.375 2 9.33334C2 8.29168 2.19792 7.31598 2.59375 6.40626C2.98958 5.49654 3.52431 4.70487 4.19792 4.03126C4.87153 3.35765 5.66319 2.82293 6.57292 2.42709C7.48264 2.03126 8.45833 1.83334 9.5 1.83334C10.5417 1.83334 11.5174 2.03126 12.4271 2.42709C13.3368 2.82293 14.1285 3.35765 14.8021 4.03126C15.4757 4.70487 16.0104 5.49654 16.4063 6.40626C16.8021 7.31598 17 8.29168 17 9.33334C17 10.375 16.8021 11.3507 16.4063 12.2604C16.0104 13.1701 15.4757 13.9618 14.8021 14.6354C14.1285 15.309 13.3368 15.8438 12.4271 16.2396C11.5174 16.6354 10.5417 16.8333 9.5 16.8333ZM11.8333 12.8333L13 11.6667L10.3333 9.00001V5.16668H8.66667V9.66668L11.8333 12.8333ZM4.16667 0.458344L5.33333 1.62501L1.79167 5.16668L0.625 4.00001L4.16667 0.458344ZM14.8333 0.458344L18.375 4.00001L17.2083 5.16668L13.6667 1.62501L14.8333 0.458344ZM9.5 15.1667C11.125 15.1667 12.5035 14.6007 13.6354 13.4688C14.7674 12.3368 15.3333 10.9583 15.3333 9.33334C15.3333 7.70834 14.7674 6.32987 13.6354 5.19793C12.5035 4.06598 11.125 3.50001 9.5 3.50001C7.875 3.50001 6.49653 4.06598 5.36458 5.19793C4.23264 6.32987 3.66667 7.70834 3.66667 9.33334C3.66667 10.9583 4.23264 12.3368 5.36458 13.4688C6.49653 14.6007 7.875 15.1667 9.5 15.1667Z" fill="#101010"/>
</svg>
