<svg width="189" height="74" viewBox="0 0 189 74" fill="none" xmlns="http://www.w3.org/2000/svg">
<path d="M170.502 64.0232C171.654 63.1053 172.789 62.2442 173.877 61.3263C177.396 58.3624 180.58 55.0845 182.926 51.0591C186.846 44.3328 185.785 35.566 180.452 30.2463C178.091 27.8919 175.403 27.1502 172.261 28.3664C172.156 28.4076 172.046 28.4346 171.913 28.4758C171.24 27.1573 170.303 26.1911 168.649 25.951C170.391 24.9635 172.091 24.3369 173.927 24.118C177.805 23.6548 180.895 25.2306 183.469 28.0126C190.056 35.1284 190.834 45.7096 185.403 54.1367C182.47 58.6878 178.647 62.3806 174.436 65.6884C170.423 68.8385 166.139 71.5552 161.598 73.8513C161.311 73.9962 160.845 74.0616 160.582 73.9252C153.034 70.0547 146.091 65.3261 140.333 58.9734C137.65 56.0137 135.266 52.8111 134.096 48.9008C131.676 40.8133 133.23 33.5796 139.082 27.5054C142.689 23.7628 147.081 23.0765 151.813 25.1624C152.639 25.5275 153.429 25.9794 154.215 26.3815C153.845 26.9768 153.482 27.4741 153.215 28.0183C152.947 28.5639 152.777 29.1579 152.574 29.7035C151.588 29.2431 150.623 28.7231 149.61 28.3309C146.76 27.2255 144.148 27.7356 141.979 29.8782C137.267 34.5316 135.823 40.1781 137.281 46.6317C137.327 46.8349 137.399 47.0466 137.512 47.2185C140.306 51.4669 143.572 55.2663 147.82 58.0896C149.714 59.3485 151.793 60.1627 154.068 60.4014C154.345 60.4298 154.627 60.4411 154.905 60.4284C155.135 60.4184 155.362 60.363 155.618 60.2067C155.419 60.1413 155.22 60.076 155.023 60.0092C152.05 59.0046 149.382 57.4957 147.35 55.0291C146.946 54.5389 146.704 53.8242 146.609 53.1791C146.456 52.1333 147.327 51.4968 148.222 52.0353C152.099 54.3641 156.481 55.0404 160.748 56.1061C161.922 56.3988 163.129 56.656 164.227 57.1447C166.944 58.3553 168.841 60.4539 170.105 63.1564C170.221 63.4093 170.336 63.6651 170.502 64.0232Z" fill="#50E678"/>
<path d="M153.203 52.2455C154.797 49.6098 156.553 47.281 159.049 45.6157C160.853 44.4108 162.647 44.4094 164.378 45.7294C167.575 48.1676 169.668 51.4256 170.934 55.2222C171.292 56.2964 171.403 57.4743 171.48 58.6152C171.513 59.1225 171.18 59.6539 170.955 60.3587C170.553 59.8415 170.308 59.5104 170.047 59.1921C168.165 56.896 165.808 55.4226 162.913 54.7619C159.938 54.0827 156.989 53.2813 154.031 52.5282C153.787 52.4671 153.553 52.3663 153.203 52.2455Z" fill="#50E678"/>
<path d="M163.256 35.6287C163.248 33.1663 163.921 30.91 165.389 28.9477C165.854 28.3254 166.48 27.7698 167.141 27.3649C168.429 26.5763 169.757 26.9457 170.623 28.1975C171.289 29.1594 171.55 30.2635 171.61 31.403C171.757 34.1808 171.13 36.7583 169.436 38.9876C169.006 39.5545 168.436 40.0575 167.837 40.4369C166.508 41.2766 165.13 40.9257 164.239 39.6213C163.563 38.631 163.262 37.4019 163.256 35.6287Z" fill="#50E678"/>
<path d="M153.303 32.865C153.293 30.9255 153.516 29.5828 154.128 28.3324C155.269 26.0022 157.419 25.6924 159.132 27.6248C160.406 29.0627 160.976 30.8303 161.257 32.6987C161.53 34.5203 161.483 36.3305 160.754 38.0554C160.275 39.1864 159.652 40.2478 158.31 40.4411C156.881 40.6471 155.935 39.7946 155.164 38.7204C153.795 36.815 153.342 34.6226 153.303 32.865Z" fill="#50E678"/>
<path d="M177.884 43.8242C177.729 46.1502 176.966 48.1621 175.485 49.8857C175.138 50.2906 174.726 50.6629 174.282 50.9527C172.303 52.2443 170.253 51.5253 169.581 49.2406C168.82 46.656 169.34 44.205 170.801 42.0155C171.383 41.1431 172.193 40.3289 173.075 39.7819C174.739 38.7489 176.449 39.357 177.226 41.1772C177.579 42.0013 177.673 42.939 177.884 43.8242Z" fill="#50E678"/>
<path d="M154.574 44.7307C154.257 45.7452 154.067 46.835 153.589 47.7741C152.821 49.286 151.188 49.7065 149.763 48.8085C147.059 47.1049 145.937 44.5019 146.011 41.366C146.034 40.4041 146.244 39.3711 146.651 38.5087C147.415 36.8931 148.968 36.474 150.556 37.291C152.123 38.0966 153.059 39.4891 153.651 41.0819C154.073 42.2171 154.257 43.4419 154.574 44.7307Z" fill="#50E678"/>
<g clip-path="url(#clip0_1134_110)">
<path d="M72.3989 19.4507L67.6976 19.4141C66.6704 19.4061 65.7336 20.1202 65.4872 21.1175L63.735 27.8973C63.389 29.2968 64.545 30.7728 65.9867 30.7728H69.3161C69.4827 30.7728 69.7376 30.8984 69.6558 31.2167L61.2999 63.7435C60.3653 67.4092 63.1349 71.0844 66.9177 71.0844H72.0235C72.5463 71.0844 73.0522 70.8999 73.4523 70.5634C74.7286 69.3981 94.6018 53.6786 96.6664 53.6786C97.2423 53.6296 97.8121 53.6618 98.3645 53.8387C99.5617 54.2228 100.232 55.116 100.618 56.2511C101.082 57.6193 101.568 58.9776 102.16 60.2978C103.048 62.2789 104.116 64.1521 105.499 65.8288C106.881 67.5054 108.508 68.8835 110.488 69.8124C112.72 70.8586 115.075 71.2012 117.516 71.0076C119.76 70.8297 121.909 70.2501 123.998 69.4341C126.607 68.4141 129.047 67.0738 131.393 65.5514C133.477 64.1905 135.481 62.7086 137.392 61.1133C137.959 60.6424 138.517 60.1635 139.069 59.6763C139.741 59.0926 140.359 58.1306 140.555 57.3487L140.874 56.0723C141.275 54.4701 140.33 54.4127 139.938 54.7071C138.147 56.0402 136.338 57.3487 134.4 58.4653C132.652 59.4724 130.832 60.2875 128.799 60.5108C127.074 60.6985 125.536 60.2904 124.257 59.0665C123.209 58.0642 122.55 56.8166 122.011 55.4973C121.312 53.7833 120.856 51.9955 120.429 50.1991C120.125 48.9198 119.843 47.6327 119.474 46.3714C119.005 44.7678 118.283 43.275 117.252 41.948C116.033 40.3817 114.481 39.3073 112.542 38.8477C110.64 38.399 108.76 38.5788 106.913 39.172C104.075 40.0835 98.9788 44.2977 96.5058 46.3524C94.2321 48.2416 84.9614 56.2461 80.2616 56.2461C78.8113 56.2461 77.7505 54.8781 78.1115 53.4736C80.7815 43.0816 83.378 32.7165 83.8131 31.0143C83.8507 30.8673 83.9807 30.7732 84.1325 30.7728L91.3991 30.7526C92.4095 30.7497 93.2934 30.0297 93.5453 29.0512L95.2514 22.2258C95.613 20.8211 94.5523 19.4527 93.1018 19.4527H87.2937C87.0763 19.4527 86.9172 19.2477 86.9712 19.0369L91.402 1.76137C91.7038 0.584629 90.7915 0.0297073 90.1859 0.0298157H81.8574C79.3603 0.0300633 77.2515 1.63898 76.6163 4.19161L72.7238 19.2013C72.6854 19.349 72.5515 19.4518 72.3989 19.4507Z" fill="#7D1AD7"/>
<path d="M116.966 15.5895C115.838 16.3849 114.985 17.4477 114.237 18.5909C113.339 19.9624 112.07 22.2316 111.149 24.4907C109.815 27.7621 111.826 30.9179 115.359 30.8715C117.767 30.84 120.171 30.4508 121.134 30.1833C122.857 29.7048 124.494 29.0336 125.979 28.039C128.11 26.6123 129.21 24.6072 129.138 22.0172C129.1 20.7288 128.75 19.5052 128.155 18.359C127.031 16.1877 125.283 14.7705 122.896 14.2414C120.732 13.7613 118.753 14.3299 116.966 15.5895Z" fill="#7D1AD7"/>
<path d="M57.8201 14.0138C61.6817 14.0138 64.8121 10.8834 64.8121 7.02182C64.8121 3.16024 61.6817 0.0298157 57.8201 0.0298157C53.9586 0.0298157 50.8281 3.16024 50.8281 7.02182C50.8281 10.8834 53.9586 14.0138 57.8201 14.0138Z" fill="#7D1AD7"/>
<path d="M50.4484 19.5079C47.918 19.5079 46.8644 21.4311 46.6538 22.3927L35.0217 67.6071C34.6332 69.1171 35.632 71.06 37.7962 71.06H47.3961C48.3727 71.06 48.7092 70.3933 48.8091 70.0049L61.4302 20.9499C61.7157 19.8401 60.8254 19.5079 60.3977 19.5079H50.4484Z" fill="#7D1AD7"/>
<path d="M40.1908 21.1514C29.3736 16.3069 8.0055 15.7992 0.996874 41.984C-3.74355 59.6944 8.95713 77.9357 27.7521 69.5028C28.64 69.1267 29.0284 68.2841 29.1394 67.6804L31.7475 57.5204C32.025 56.4395 30.8042 55.7313 29.953 56.1991C19.727 61.8193 10.1959 54.7426 15.3694 42.0394C20.457 29.547 30.8642 31.3524 36.1869 34.2942C36.8416 34.656 37.7618 34.3696 37.9627 33.5597L40.7563 22.2929C40.8229 22.0246 40.7928 21.4306 40.1908 21.1514Z" fill="#7D1AD7"/>
</g>
<defs>
<clipPath id="clip0_1134_110">
<rect width="141" height="71.6391" fill="white"/>
</clipPath>
</defs>
</svg>
