<svg width="190" height="74" viewBox="0 0 190 74" fill="none" xmlns="http://www.w3.org/2000/svg">
<path d="M171.002 64.0232C172.154 63.1053 173.289 62.2442 174.377 61.3263C177.896 58.3624 181.08 55.0845 183.426 51.0591C187.346 44.3328 186.285 35.566 180.952 30.2463C178.591 27.8919 175.903 27.1502 172.761 28.3664C172.656 28.4076 172.546 28.4346 172.413 28.4758C171.74 27.1573 170.803 26.1911 169.149 25.951C170.891 24.9635 172.591 24.3369 174.427 24.118C178.305 23.6548 181.395 25.2306 183.969 28.0126C190.556 35.1284 191.334 45.7096 185.903 54.1367C182.97 58.6878 179.147 62.3806 174.936 65.6884C170.923 68.8385 166.639 71.5552 162.098 73.8513C161.811 73.9962 161.345 74.0616 161.082 73.9252C153.534 70.0547 146.591 65.3261 140.833 58.9734C138.15 56.0137 135.766 52.8111 134.596 48.9008C132.176 40.8133 133.73 33.5796 139.582 27.5054C143.189 23.7628 147.581 23.0765 152.313 25.1624C153.139 25.5275 153.929 25.9794 154.715 26.3815C154.345 26.9768 153.982 27.4741 153.715 28.0183C153.447 28.5639 153.277 29.1579 153.074 29.7035C152.088 29.2431 151.123 28.7231 150.11 28.3309C147.26 27.2255 144.648 27.7356 142.479 29.8782C137.767 34.5316 136.323 40.1781 137.781 46.6317C137.827 46.8349 137.899 47.0466 138.012 47.2185C140.806 51.4669 144.072 55.2663 148.32 58.0896C150.214 59.3485 152.293 60.1627 154.568 60.4014C154.845 60.4298 155.127 60.4411 155.405 60.4284C155.635 60.4184 155.862 60.363 156.118 60.2067C155.919 60.1413 155.72 60.076 155.523 60.0092C152.55 59.0046 149.882 57.4957 147.85 55.0291C147.446 54.5389 147.204 53.8242 147.109 53.1791C146.956 52.1333 147.827 51.4968 148.722 52.0353C152.599 54.3641 156.981 55.0404 161.248 56.1061C162.422 56.3988 163.629 56.656 164.727 57.1447C167.444 58.3553 169.341 60.4539 170.605 63.1564C170.721 63.4093 170.836 63.6651 171.002 64.0232Z" fill="#50E678"/>
<path d="M153.703 52.2455C155.297 49.6098 157.053 47.281 159.549 45.6157C161.353 44.4108 163.147 44.4094 164.878 45.7294C168.075 48.1676 170.168 51.4257 171.434 55.2222C171.792 56.2964 171.903 57.4743 171.98 58.6153C172.013 59.1225 171.68 59.6539 171.455 60.3587C171.053 59.8415 170.808 59.5104 170.547 59.1922C168.665 56.896 166.308 55.4226 163.413 54.7619C160.438 54.0827 157.489 53.2813 154.531 52.5283C154.287 52.4672 154.053 52.3663 153.703 52.2455Z" fill="#50E678"/>
<path d="M163.756 35.6286C163.748 33.1663 164.421 30.9099 165.889 28.9477C166.354 28.3254 166.98 27.7698 167.641 27.3649C168.929 26.5763 170.257 26.9457 171.123 28.1975C171.789 29.1594 172.05 30.2634 172.11 31.403C172.257 34.1808 171.63 36.7582 169.936 38.9876C169.506 39.5545 168.936 40.0575 168.337 40.4369C167.008 41.2766 165.63 40.9256 164.739 39.6213C164.063 38.6309 163.762 37.4019 163.756 35.6286Z" fill="#50E678"/>
<path d="M153.803 32.865C153.793 30.9255 154.016 29.5828 154.628 28.3324C155.769 26.0022 157.919 25.6924 159.632 27.6248C160.906 29.0627 161.476 30.8303 161.757 32.6987C162.03 34.5203 161.983 36.3305 161.254 38.0554C160.775 39.1864 160.152 40.2478 158.81 40.4411C157.381 40.6471 156.435 39.7946 155.664 38.7204C154.295 36.815 153.842 34.6226 153.803 32.865Z" fill="#50E678"/>
<path d="M178.384 43.8243C178.229 46.1502 177.466 48.1622 175.985 49.8857C175.638 50.2906 175.226 50.6629 174.782 50.9528C172.803 52.2443 170.753 51.5254 170.081 49.2406C169.32 46.6561 169.84 44.2051 171.301 42.0155C171.883 41.1431 172.693 40.3289 173.575 39.7819C175.239 38.7489 176.949 39.357 177.726 41.1772C178.079 42.0013 178.173 42.9391 178.384 43.8243Z" fill="#50E678"/>
<path d="M155.074 44.7306C154.757 45.7451 154.567 46.8349 154.089 47.7741C153.321 49.2859 151.688 49.7065 150.263 48.8085C147.559 47.1049 146.437 44.5019 146.511 41.366C146.534 40.4041 146.744 39.3711 147.151 38.5086C147.915 36.8931 149.468 36.4739 151.056 37.2909C152.623 38.0966 153.559 39.489 154.151 41.0818C154.573 42.2171 154.757 43.4419 155.074 44.7306Z" fill="#50E678"/>
<g clip-path="url(#clip0_61_1480)">
<path d="M72.8989 19.4507L68.1976 19.4141C67.1704 19.4061 66.2336 20.1202 65.9872 21.1175L64.235 27.8972C63.889 29.2967 65.045 30.7728 66.4867 30.7728H69.8161C69.9827 30.7728 70.2376 30.8984 70.1558 31.2167L61.7999 63.7435C60.8653 67.4091 63.6349 71.0844 67.4177 71.0844H72.5235C73.0463 71.0844 73.5522 70.8998 73.9523 70.5634C75.2286 69.3981 95.1018 53.6786 97.1664 53.6786C97.7423 53.6296 98.3121 53.6618 98.8645 53.8387C100.062 54.2227 100.732 55.1159 101.118 56.251C101.582 57.6193 102.068 58.9776 102.66 60.2978C103.548 62.2788 104.616 64.1521 105.999 65.8288C107.381 67.5053 109.008 68.8834 110.988 69.8123C113.22 70.8586 115.575 71.2012 118.016 71.0075C120.26 70.8297 122.409 70.25 124.498 69.434C127.107 68.4141 129.547 67.0737 131.893 65.5513C133.977 64.1904 135.981 62.7085 137.892 61.1132C138.459 60.6424 139.017 60.1635 139.569 59.6763C140.241 59.0925 140.859 58.1306 141.055 57.3486L141.374 56.0723C141.775 54.47 140.83 54.4127 140.438 54.7071C138.647 56.0402 136.838 57.3486 134.9 58.4653C133.152 59.4724 131.332 60.2875 129.299 60.5108C127.574 60.6985 126.036 60.2904 124.757 59.0665C123.709 58.0642 123.05 56.8165 122.511 55.4973C121.812 53.7833 121.356 51.9955 120.929 50.199C120.625 48.9198 120.343 47.6327 119.974 46.3714C119.505 44.7677 118.783 43.275 117.752 41.948C116.533 40.3817 114.981 39.3072 113.042 38.8476C111.14 38.399 109.26 38.5788 107.413 39.1719C104.575 40.0835 99.4788 44.2977 97.0058 46.3524C94.7321 48.2416 85.4614 56.2461 80.7616 56.2461C79.3113 56.2461 78.2505 54.8781 78.6115 53.4736C81.2815 43.0816 83.878 32.7164 84.3131 31.0143C84.3507 30.8672 84.4807 30.7732 84.6325 30.7728L91.8991 30.7526C92.9095 30.7496 93.7934 30.0297 94.0453 29.0512L95.7514 22.2257C96.113 20.821 95.0523 19.4527 93.6018 19.4527H87.7937C87.5763 19.4527 87.4172 19.2476 87.4712 19.0369L91.902 1.76134C92.2038 0.584598 91.2915 0.0296768 90.6859 0.0297852H82.3574C79.8603 0.0300327 77.7515 1.63895 77.1163 4.19158L73.2238 19.2013C73.1854 19.349 73.0515 19.4518 72.8989 19.4507Z" fill="#7D1AD7"/>
<path d="M117.466 15.5895C116.338 16.3848 115.485 17.4477 114.737 18.5908C113.839 19.9624 112.57 22.2315 111.649 24.4907C110.315 27.7621 112.326 30.9178 115.859 30.8715C118.267 30.84 120.671 30.4508 121.634 30.1832C123.357 29.7048 124.994 29.0336 126.479 28.039C128.61 26.6123 129.71 24.6071 129.638 22.0171C129.6 20.7288 129.25 19.5052 128.655 18.359C127.531 16.1876 125.783 14.7704 123.396 14.2414C121.232 13.7613 119.253 14.3298 117.466 15.5895Z" fill="#7D1AD7"/>
<path d="M58.3201 14.0138C62.1817 14.0138 65.3121 10.8834 65.3121 7.02179C65.3121 3.16021 62.1817 0.0297852 58.3201 0.0297852C54.4586 0.0297852 51.3281 3.16021 51.3281 7.02179C51.3281 10.8834 54.4586 14.0138 58.3201 14.0138Z" fill="#7D1AD7"/>
<path d="M50.9484 19.5079C48.418 19.5079 47.3644 21.4311 47.1538 22.3927L35.5217 67.6071C35.1332 69.1171 36.132 71.06 38.2962 71.06H47.8961C48.8727 71.06 49.2092 70.3933 49.3091 70.0049L61.9302 20.9499C62.2157 19.8401 61.3254 19.5079 60.8977 19.5079H50.9484Z" fill="#7D1AD7"/>
<path d="M40.6908 21.1514C29.8736 16.3069 8.5055 15.7992 1.49687 41.984C-3.24355 59.6944 9.45713 77.9357 28.2521 69.5028C29.14 69.1267 29.5284 68.2841 29.6394 67.6804L32.2475 57.5204C32.525 56.4395 31.3042 55.7313 30.453 56.1991C20.227 61.8193 10.6959 54.7426 15.8694 42.0394C20.957 29.547 31.3642 31.3524 36.6869 34.2942C37.3416 34.656 38.2618 34.3696 38.4627 33.5597L41.2563 22.2929C41.3229 22.0246 41.2928 21.4306 40.6908 21.1514Z" fill="#7D1AD7"/>
</g>
<defs>
<clipPath id="clip0_61_1480">
<rect width="141" height="71.6391" fill="white" transform="translate(0.5)"/>
</clipPath>
</defs>
</svg>
