<svg width="57" height="50" viewBox="0 0 57 50" fill="none" xmlns="http://www.w3.org/2000/svg">
<path d="M38.0015 40.0232C39.1542 39.1053 40.2886 38.2442 41.3768 37.3263C44.8963 34.3624 48.0797 31.0845 50.4255 27.0591C54.3456 20.3328 53.2854 11.566 47.9522 6.24625C45.5909 3.89187 42.9033 3.15018 39.7606 4.36644C39.6555 4.40765 39.5463 4.43464 39.4133 4.47585C38.7396 3.15728 37.8027 2.19109 36.1487 1.95096C37.8909 0.96346 39.5911 0.336855 41.4272 0.118042C45.3052 -0.345162 48.3948 1.23058 50.9689 4.01264C57.5556 11.1284 58.3342 21.7096 52.903 30.1367C49.9704 34.6878 46.1469 38.3806 41.9356 41.6884C37.9231 44.8385 33.6389 47.5552 29.0984 49.8513C28.8113 49.9962 28.345 50.0616 28.0817 49.9252C20.5343 46.0547 13.5905 41.3261 7.833 34.9734C5.14961 32.0137 2.76593 28.8111 1.5965 24.9008C-0.823594 16.8133 0.72958 9.57961 6.58234 3.50539C10.1887 -0.237176 14.5807 -0.923455 19.313 1.16238C20.1393 1.52754 20.9292 1.97938 21.7149 2.38149C21.3452 2.97683 20.9825 3.47413 20.715 4.01833C20.4475 4.56394 20.2766 5.15786 20.0735 5.70348C19.0876 5.24312 18.1226 4.72308 17.11 4.33092C14.26 3.22548 11.648 3.73558 9.47861 5.87825C4.76727 10.5316 3.32334 16.1781 4.78128 22.6317C4.82749 22.8349 4.89892 23.0466 5.01236 23.2185C7.80639 27.4669 11.0724 31.2663 15.3202 34.0896C17.2137 35.3485 19.2934 36.1627 21.5679 36.4014C21.8452 36.4298 22.1267 36.4411 22.4054 36.4284C22.6351 36.4184 22.862 36.363 23.1182 36.2067C22.9194 36.1413 22.7205 36.076 22.523 36.0092C19.5497 35.0046 16.8817 33.4957 14.8496 31.0291C14.4462 30.5389 14.204 29.8242 14.1087 29.1791C13.9561 28.1333 14.8272 27.4968 15.7221 28.0353C19.5987 30.3641 23.981 31.0404 28.2483 32.1061C29.422 32.3988 30.6292 32.656 31.7272 33.1447C34.4442 34.3553 36.3405 36.4539 37.6052 39.1564C37.7214 39.4093 37.8363 39.6651 38.0015 40.0232Z" fill="#50E678"/>
<path d="M20.7031 28.2455C22.2969 25.6098 24.0532 23.281 26.5489 21.6157C28.3527 20.4108 30.1468 20.4094 31.8778 21.7294C35.0752 24.1676 37.1676 27.4257 38.4337 31.2222C38.7922 32.2964 38.9028 33.4743 38.9799 34.6153C39.0135 35.1225 38.6802 35.6539 38.4547 36.3587C38.0527 35.8415 37.8076 35.5104 37.5471 35.1922C35.6648 32.896 33.3078 31.4226 30.4129 30.7619C27.4382 30.0827 24.4887 29.2813 21.5308 28.5283C21.2871 28.4672 21.0533 28.3663 20.7031 28.2455Z" fill="#50E678"/>
<path d="M30.7559 11.6286C30.7475 9.16627 31.4212 6.90993 32.8889 4.94771C33.3539 4.32537 33.9799 3.76981 34.641 3.36486C35.9294 2.57628 37.2571 2.9457 38.1227 4.19749C38.7893 5.15942 39.0498 6.26343 39.11 7.40297C39.2571 10.1808 38.6296 12.7582 36.9364 14.9876C36.5065 15.5545 35.9365 16.0575 35.337 16.4369C34.0079 17.2766 32.6298 16.9256 31.7391 15.6213C31.0627 14.6309 30.7615 13.4019 30.7559 11.6286Z" fill="#50E678"/>
<path d="M20.803 8.86498C20.7932 6.9255 21.0159 5.58278 21.6279 4.33241C22.7694 2.00219 24.9192 1.69244 26.632 3.62482C27.9065 5.06274 28.4765 6.8303 28.7566 8.69874C29.0297 10.5203 28.9835 12.3305 28.2538 14.0554C27.7748 15.1864 27.1516 16.2478 25.8099 16.4411C24.3814 16.6471 23.4346 15.7946 22.6643 14.7204C21.2946 12.815 20.8423 10.6226 20.803 8.86498Z" fill="#50E678"/>
<path d="M45.3844 19.8243C45.2289 22.1502 44.4656 24.1622 42.9853 25.8857C42.638 26.2906 42.2262 26.6629 41.7823 26.9528C39.8033 28.2443 37.753 27.5254 37.0807 25.2406C36.3202 22.6561 36.8398 20.2051 38.3006 18.0155C38.8832 17.1431 39.6927 16.3289 40.575 15.7819C42.2388 14.7489 43.9489 15.357 44.7261 17.1772C45.0791 18.0013 45.1729 18.9391 45.3844 19.8243Z" fill="#50E678"/>
<path d="M22.074 20.7306C21.7575 21.7451 21.567 22.8349 21.0895 23.7741C20.3206 25.2859 18.6876 25.7065 17.2632 24.8085C14.5588 23.1049 13.437 20.5019 13.5113 17.366C13.5337 16.4041 13.7437 15.3711 14.1513 14.5086C14.9146 12.8931 16.4677 12.4739 18.0559 13.2909C19.6231 14.0966 20.5587 15.489 21.1511 17.0818C21.5726 18.2171 21.7575 19.4419 22.074 20.7306Z" fill="#50E678"/>
</svg>
