<svg width="22" height="20" viewBox="0 0 22 20" fill="none" xmlns="http://www.w3.org/2000/svg">
<path d="M10.9996 20C9.74961 20 8.57878 19.7625 7.48711 19.2875C6.39544 18.8125 5.44544 18.1708 4.63711 17.3625C3.82878 16.5542 3.18711 15.6042 2.71211 14.5125C2.23711 13.4208 1.99961 12.25 1.99961 11C1.99961 9.75001 2.23711 8.57917 2.71211 7.48751C3.18711 6.39584 3.82878 5.44584 4.63711 4.63751C5.44544 3.82917 6.39544 3.18751 7.48711 2.71251C8.57878 2.23751 9.74961 2.00001 10.9996 2.00001C12.2496 2.00001 13.4204 2.23751 14.5121 2.71251C15.6038 3.18751 16.5538 3.82917 17.3621 4.63751C18.1704 5.44584 18.8121 6.39584 19.2871 7.48751C19.7621 8.57917 19.9996 9.75001 19.9996 11C19.9996 12.25 19.7621 13.4208 19.2871 14.5125C18.8121 15.6042 18.1704 16.5542 17.3621 17.3625C16.5538 18.1708 15.6038 18.8125 14.5121 19.2875C13.4204 19.7625 12.2496 20 10.9996 20ZM13.7996 15.2L15.1996 13.8L11.9996 10.6V6.00001H9.99961V11.4L13.7996 15.2ZM4.59961 0.350006L5.99961 1.75001L1.74961 6.00001L0.349609 4.60001L4.59961 0.350006ZM17.3996 0.350006L21.6496 4.60001L20.2496 6.00001L15.9996 1.75001L17.3996 0.350006ZM10.9996 18C12.9496 18 14.6038 17.3208 15.9621 15.9625C17.3204 14.6042 17.9996 12.95 17.9996 11C17.9996 9.05001 17.3204 7.39584 15.9621 6.03751C14.6038 4.67917 12.9496 4.00001 10.9996 4.00001C9.04961 4.00001 7.39544 4.67917 6.03711 6.03751C4.67878 7.39584 3.99961 9.05001 3.99961 11C3.99961 12.95 4.67878 14.6042 6.03711 15.9625C7.39544 17.3208 9.04961 18 10.9996 18Z" fill="#101010"/>
</svg>
