<svg width="142" height="72" viewBox="0 0 142 72" fill="none" xmlns="http://www.w3.org/2000/svg">
<g clip-path="url(#clip0_644_269)">
<path d="M72.8989 19.4507L68.1976 19.4141C67.1704 19.4061 66.2336 20.1202 65.9872 21.1175L64.235 27.8972C63.889 29.2967 65.045 30.7728 66.4867 30.7728H69.8161C69.9827 30.7728 70.2376 30.8984 70.1558 31.2167L61.7999 63.7435C60.8653 67.4091 63.6349 71.0844 67.4177 71.0844H72.5235C73.0463 71.0844 73.5522 70.8998 73.9523 70.5634C75.2286 69.3981 95.1018 53.6786 97.1664 53.6786C97.7423 53.6296 98.3121 53.6618 98.8645 53.8387C100.062 54.2227 100.732 55.1159 101.118 56.251C101.582 57.6193 102.068 58.9776 102.66 60.2978C103.548 62.2788 104.616 64.1521 105.999 65.8288C107.381 67.5053 109.008 68.8834 110.988 69.8123C113.22 70.8586 115.575 71.2012 118.016 71.0075C120.26 70.8297 122.409 70.25 124.498 69.434C127.107 68.4141 129.547 67.0737 131.893 65.5513C133.977 64.1904 135.981 62.7085 137.892 61.1132C138.459 60.6424 139.017 60.1635 139.569 59.6763C140.241 59.0925 140.859 58.1306 141.055 57.3486L141.374 56.0723C141.775 54.47 140.83 54.4127 140.438 54.7071C138.647 56.0402 136.838 57.3486 134.9 58.4653C133.152 59.4724 131.332 60.2875 129.299 60.5108C127.574 60.6985 126.036 60.2904 124.757 59.0665C123.709 58.0642 123.05 56.8165 122.511 55.4973C121.812 53.7833 121.356 51.9955 120.929 50.199C120.625 48.9198 120.343 47.6327 119.974 46.3714C119.505 44.7677 118.783 43.275 117.752 41.948C116.533 40.3817 114.981 39.3072 113.042 38.8476C111.14 38.399 109.26 38.5788 107.413 39.1719C104.575 40.0835 99.4788 44.2977 97.0058 46.3524C94.7321 48.2416 85.4614 56.2461 80.7616 56.2461C79.3113 56.2461 78.2505 54.8781 78.6115 53.4736C81.2815 43.0816 83.878 32.7164 84.3131 31.0143C84.3507 30.8672 84.4807 30.7732 84.6325 30.7728L91.8991 30.7526C92.9095 30.7496 93.7934 30.0297 94.0453 29.0512L95.7514 22.2257C96.113 20.821 95.0523 19.4527 93.6018 19.4527H87.7937C87.5763 19.4527 87.4172 19.2476 87.4712 19.0369L91.902 1.76134C92.2038 0.584598 91.2915 0.0296768 90.6859 0.0297852H82.3574C79.8603 0.0300327 77.7515 1.63895 77.1163 4.19158L73.2238 19.2013C73.1854 19.349 73.0515 19.4518 72.8989 19.4507Z" fill="#7D1AD7"/>
<path d="M117.466 15.5895C116.338 16.3848 115.485 17.4477 114.737 18.5908C113.839 19.9624 112.57 22.2315 111.649 24.4907C110.315 27.7621 112.326 30.9178 115.859 30.8715C118.267 30.84 120.671 30.4508 121.634 30.1832C123.357 29.7048 124.994 29.0336 126.479 28.039C128.61 26.6123 129.71 24.6071 129.638 22.0171C129.6 20.7288 129.25 19.5052 128.655 18.359C127.531 16.1876 125.783 14.7704 123.396 14.2414C121.232 13.7613 119.253 14.3298 117.466 15.5895Z" fill="#7D1AD7"/>
<path d="M58.3201 14.0138C62.1817 14.0138 65.3121 10.8834 65.3121 7.02179C65.3121 3.16021 62.1817 0.0297852 58.3201 0.0297852C54.4586 0.0297852 51.3281 3.16021 51.3281 7.02179C51.3281 10.8834 54.4586 14.0138 58.3201 14.0138Z" fill="#7D1AD7"/>
<path d="M50.9484 19.5079C48.418 19.5079 47.3644 21.4311 47.1538 22.3927L35.5217 67.6071C35.1332 69.1171 36.132 71.06 38.2962 71.06H47.8961C48.8727 71.06 49.2092 70.3933 49.3091 70.0049L61.9302 20.9499C62.2157 19.8401 61.3254 19.5079 60.8977 19.5079H50.9484Z" fill="#7D1AD7"/>
<path d="M40.6908 21.1514C29.8736 16.3069 8.5055 15.7992 1.49687 41.984C-3.24355 59.6944 9.45713 77.9357 28.2521 69.5028C29.14 69.1267 29.5284 68.2841 29.6394 67.6804L32.2475 57.5204C32.525 56.4395 31.3042 55.7313 30.453 56.1991C20.227 61.8193 10.6959 54.7426 15.8694 42.0394C20.957 29.547 31.3642 31.3524 36.6869 34.2942C37.3416 34.656 38.2618 34.3696 38.4627 33.5597L41.2563 22.2929C41.3229 22.0246 41.2928 21.4306 40.6908 21.1514Z" fill="#7D1AD7"/>
</g>
<defs>
<clipPath id="clip0_644_269">
<rect width="141" height="71.6391" fill="white" transform="translate(0.5)"/>
</clipPath>
</defs>
</svg>
