<svg width="57" height="50" viewBox="0 0 57 50" fill="none" xmlns="http://www.w3.org/2000/svg">
<path d="M38.0015 40.0232C39.1542 39.1053 40.2886 38.2442 41.3768 37.3263C44.8963 34.3624 48.0797 31.0845 50.4255 27.0591C54.3456 20.3328 53.2854 11.566 47.9522 6.24625C45.5909 3.89187 42.9033 3.15018 39.7606 4.36644C39.6555 4.40765 39.5463 4.43464 39.4133 4.47585C38.7396 3.15728 37.8027 2.19109 36.1487 1.95096C37.8909 0.96346 39.5911 0.336855 41.4272 0.118042C45.3052 -0.345162 48.3948 1.23058 50.9689 4.01264C57.5556 11.1284 58.3342 21.7096 52.903 30.1367C49.9704 34.6878 46.1469 38.3806 41.9356 41.6884C37.9231 44.8385 33.6389 47.5552 29.0984 49.8513C28.8113 49.9962 28.345 50.0616 28.0817 49.9252C20.5343 46.0547 13.5905 41.3261 7.833 34.9734C5.14961 32.0137 2.76593 28.8111 1.5965 24.9008C-0.823594 16.8133 0.72958 9.57961 6.58234 3.50539C10.1887 -0.237176 14.5807 -0.923455 19.313 1.16238C20.1393 1.52754 20.9292 1.97938 21.7149 2.38149C21.3452 2.97683 20.9825 3.47413 20.715 4.01833C20.4475 4.56394 20.2766 5.15786 20.0735 5.70348C19.0876 5.24312 18.1226 4.72308 17.11 4.33092C14.26 3.22548 11.648 3.73558 9.47861 5.87825C4.76727 10.5316 3.32334 16.1781 4.78128 22.6317C4.82749 22.8349 4.89892 23.0466 5.01236 23.2185C7.80639 27.4669 11.0724 31.2663 15.3202 34.0896C17.2137 35.3485 19.2934 36.1627 21.5679 36.4014C21.8452 36.4298 22.1267 36.4411 22.4054 36.4284C22.6351 36.4184 22.862 36.363 23.1182 36.2067C22.9194 36.1413 22.7205 36.076 22.523 36.0092C19.5497 35.0046 16.8817 33.4957 14.8496 31.0291C14.4462 30.5389 14.204 29.8242 14.1087 29.1791C13.9561 28.1333 14.8272 27.4968 15.7221 28.0353C19.5987 30.3641 23.981 31.0404 28.2483 32.1061C29.422 32.3988 30.6292 32.656 31.7272 33.1447C34.4442 34.3553 36.3405 36.4539 37.6052 39.1564C37.7214 39.4093 37.8363 39.6651 38.0015 40.0232Z" fill="#50E678"/>
</svg>
